<mxfile host="app.diagrams.net" agent="Mozilla/5.0 (Windows NT 10.0; Win64; x64) AppleWebKit/537.36 (KHTML, like Gecko) Chrome/133.0.0.0 Safari/537.36" version="26.1.0">
  <diagram name="Page-1" id="Qwd6BtzV_9LDYA3kOrD5">
    <mxGraphModel dx="2284" dy="1920" grid="1" gridSize="10" guides="1" tooltips="1" connect="1" arrows="1" fold="1" page="1" pageScale="1" pageWidth="850" pageHeight="1100" math="0" shadow="0">
      <root>
        <mxCell id="0" />
        <mxCell id="1" parent="0" />
        <mxCell id="imZO2CCDfIl-UG94x1gi-4" style="edgeStyle=orthogonalEdgeStyle;rounded=0;orthogonalLoop=1;jettySize=auto;html=1;exitX=0.5;exitY=1;exitDx=0;exitDy=0;" parent="1" edge="1">
          <mxGeometry relative="1" as="geometry">
            <mxPoint x="300" y="570" as="sourcePoint" />
            <mxPoint x="300" y="570" as="targetPoint" />
          </mxGeometry>
        </mxCell>
        <mxCell id="imZO2CCDfIl-UG94x1gi-6" value="" style="rounded=0;whiteSpace=wrap;html=1;fillColor=none;movable=0;resizable=0;rotatable=0;deletable=0;editable=0;locked=1;connectable=0;" parent="1" vertex="1">
          <mxGeometry width="700" height="382" as="geometry" />
        </mxCell>
        <mxCell id="imZO2CCDfIl-UG94x1gi-7" value="" style="rounded=0;whiteSpace=wrap;html=1;" parent="1" vertex="1">
          <mxGeometry y="-60" width="66" height="60" as="geometry" />
        </mxCell>
        <mxCell id="imZO2CCDfIl-UG94x1gi-8" value="" style="rounded=0;whiteSpace=wrap;html=1;" parent="1" vertex="1">
          <mxGeometry x="66" width="135" height="11" as="geometry" />
        </mxCell>
        <mxCell id="imZO2CCDfIl-UG94x1gi-9" value="" style="rounded=0;whiteSpace=wrap;html=1;" parent="1" vertex="1">
          <mxGeometry y="-60" width="219" height="60" as="geometry" />
        </mxCell>
        <mxCell id="imZO2CCDfIl-UG94x1gi-10" value="" style="rounded=0;whiteSpace=wrap;html=1;" parent="1" vertex="1">
          <mxGeometry x="219" y="-140" width="131" height="140" as="geometry" />
        </mxCell>
        <mxCell id="imZO2CCDfIl-UG94x1gi-11" value="" style="rounded=0;whiteSpace=wrap;html=1;rotation=-90;" parent="1" vertex="1">
          <mxGeometry x="-14" y="315" width="80" height="50" as="geometry" />
        </mxCell>
        <mxCell id="imZO2CCDfIl-UG94x1gi-12" value="" style="rounded=0;whiteSpace=wrap;html=1;rotation=-90;" parent="1" vertex="1">
          <mxGeometry x="650" y="50" width="40" height="50" as="geometry" />
        </mxCell>
        <mxCell id="imZO2CCDfIl-UG94x1gi-13" value="кровать 160&lt;br&gt;(176 х 209)" style="rounded=0;whiteSpace=wrap;html=1;rotation=-90;" parent="1" vertex="1">
          <mxGeometry x="20" y="-10" width="176" height="209" as="geometry" />
        </mxCell>
        <mxCell id="imZO2CCDfIl-UG94x1gi-14" value="кровать 140&lt;br&gt;(156 х 209)" style="rounded=0;whiteSpace=wrap;html=1;" parent="1" vertex="1">
          <mxGeometry x="-260" y="-29.5" width="156" height="209" as="geometry" />
        </mxCell>
        <mxCell id="imZO2CCDfIl-UG94x1gi-15" value="стол" style="rounded=0;whiteSpace=wrap;html=1;rotation=-180;" parent="1" vertex="1">
          <mxGeometry x="174" y="302" width="110" height="80" as="geometry" />
        </mxCell>
        <mxCell id="imZO2CCDfIl-UG94x1gi-16" value="стул" style="rounded=0;whiteSpace=wrap;html=1;" parent="1" vertex="1">
          <mxGeometry x="500" y="60" width="45" height="50" as="geometry" />
        </mxCell>
        <mxCell id="imZO2CCDfIl-UG94x1gi-17" value="стул" style="rounded=0;whiteSpace=wrap;html=1;rotation=-90;" parent="1" vertex="1">
          <mxGeometry x="151" y="317" width="45" height="50" as="geometry" />
        </mxCell>
        <mxCell id="imZO2CCDfIl-UG94x1gi-18" value="стул" style="rounded=0;whiteSpace=wrap;html=1;" parent="1" vertex="1">
          <mxGeometry x="217" y="267" width="45" height="50" as="geometry" />
        </mxCell>
        <mxCell id="imZO2CCDfIl-UG94x1gi-19" value="стул" style="rounded=0;whiteSpace=wrap;html=1;rotation=-90;" parent="1" vertex="1">
          <mxGeometry x="262" y="330" width="45" height="50" as="geometry" />
        </mxCell>
        <mxCell id="imZO2CCDfIl-UG94x1gi-21" value="" style="rounded=0;whiteSpace=wrap;html=1;" parent="1" vertex="1">
          <mxGeometry y="382" width="83" height="60" as="geometry" />
        </mxCell>
        <mxCell id="imZO2CCDfIl-UG94x1gi-22" value="окно" style="rounded=0;whiteSpace=wrap;html=1;" parent="1" vertex="1">
          <mxGeometry x="83" y="382" width="97" height="60" as="geometry" />
        </mxCell>
        <mxCell id="imZO2CCDfIl-UG94x1gi-23" value="стена" style="rounded=0;whiteSpace=wrap;html=1;" parent="1" vertex="1">
          <mxGeometry x="180" y="382" width="104" height="60" as="geometry" />
        </mxCell>
        <mxCell id="imZO2CCDfIl-UG94x1gi-24" value="кровать&lt;br&gt;(104 х 211)" style="rounded=0;whiteSpace=wrap;html=1;rotation=-90;" parent="1" vertex="1">
          <mxGeometry x="56" y="130" width="104" height="211" as="geometry" />
        </mxCell>
      </root>
    </mxGraphModel>
  </diagram>
</mxfile>
